<?xml version="1.0" encoding="UTF-8"?>
<svg version="1.1" xmlns="http://www.w3.org/2000/svg" width="512" height="512">
<path d="M0 0 C69.63 0 139.26 0 211 0 C211 29.7 211 59.4 211 90 C188.9375 90.375 188.9375 90.375 182.01147461 90.47802734 C180.18341662 90.51325978 178.35537178 90.54918394 176.52734375 90.5859375 C175.59152466 90.59729736 174.65570557 90.60865723 173.69152832 90.62036133 C167.01288587 90.76714468 161.35871245 90.94894569 156.125 95.5 C152.66527655 99.57026289 152.71766259 102.31892657 152.78515625 107.5234375 C153.06684509 110.77054159 153.84857018 112.55182123 156 115 C160.6063697 118.39416715 165.08310151 119.09459637 170.69848633 119.20532227 C171.61150513 119.22550415 172.52452393 119.24568604 173.46520996 119.26647949 C174.41126099 119.28295532 175.35731201 119.29943115 176.33203125 119.31640625 C177.65140686 119.34438293 177.65140686 119.34438293 178.99743652 119.3729248 C182.26902655 119.44099192 185.54077455 119.50128744 188.8125 119.5625 C199.7953125 119.7790625 199.7953125 119.7790625 211 120 C211 149.7 211 179.4 211 210 C230.8 210 250.6 210 271 210 C271 201.75 271 193.5 271 185 C274.14264575 173.57219726 280.00984748 163.74708062 290 157 C302.79379168 149.82874308 315.3692943 147.61983196 329.890625 150.87109375 C343.91675142 155.93977688 352.39297902 165.12895186 358.80078125 178.23046875 C363.38226076 188.81114944 361 196.66969203 361 210 C380.8 210 400.6 210 421 210 C421 279.63 421 349.26 421 421 C282.07 421 143.14 421 0 421 C0 282.07 0 143.14 0 0 Z " fill="#47568B" transform="translate(0,91)"/>
<path d="M0 0 C69.63 0 139.26 0 211 0 C211 69.63 211 139.26 211 211 C180.97 211 150.94 211 120 211 C119.67 196.15 119.34 181.3 119 166 C116.9428952 158.76937734 116.9428952 158.76937734 112 154 C108.31064308 152.15532154 104.03564658 152.64990448 100 153 C95.75762381 154.71500314 93.95254335 156.89965896 92 161 C91.22125675 164.26545816 90.86076622 167.34685605 90.79467773 170.69848633 C90.77449585 171.61150513 90.75431396 172.52452393 90.73352051 173.46520996 C90.71704468 174.41126099 90.70056885 175.35731201 90.68359375 176.33203125 C90.65561707 177.65140686 90.65561707 177.65140686 90.6270752 178.99743652 C90.55900808 182.26902655 90.49871256 185.54077455 90.4375 188.8125 C90.293125 196.134375 90.14875 203.45625 90 211 C60.3 211 30.6 211 0 211 C0 191.2 0 171.4 0 151 C-8.25 151 -16.5 151 -25 151 C-36.42780274 147.85735425 -46.25291938 141.99015252 -53 132 C-60.17125692 119.20620832 -62.38016804 106.6307057 -59.12890625 92.109375 C-54.06022312 78.08324858 -44.87104814 69.60702098 -31.76953125 63.19921875 C-21.18885056 58.61773924 -13.33030797 61 0 61 C0 40.87 0 20.74 0 0 Z " fill="#69A9FF" transform="translate(301,0)"/>
<path d="M0 0 C69.63 0 139.26 0 211 0 C211 29.7 211 59.4 211 90 C188.9375 90.375 188.9375 90.375 182.01147461 90.47802734 C180.18341662 90.51325978 178.35537178 90.54918394 176.52734375 90.5859375 C175.59152466 90.59729736 174.65570557 90.60865723 173.69152832 90.62036133 C167.01288587 90.76714468 161.35871245 90.94894569 156.125 95.5 C152.66527655 99.57026289 152.71766259 102.31892657 152.78515625 107.5234375 C153.06684509 110.77054159 153.84857018 112.55182123 156 115 C160.6063697 118.39416715 165.08310151 119.09459637 170.69848633 119.20532227 C171.61150513 119.22550415 172.52452393 119.24568604 173.46520996 119.26647949 C174.41126099 119.28295532 175.35731201 119.29943115 176.33203125 119.31640625 C177.65140686 119.34438293 177.65140686 119.34438293 178.99743652 119.3729248 C182.26902655 119.44099192 185.54077455 119.50128744 188.8125 119.5625 C199.7953125 119.7790625 199.7953125 119.7790625 211 120 C211 149.7 211 179.4 211 210 C191.2 210 171.4 210 151 210 C151 216.6 151 223.2 151 230 C148.37551631 241.81017661 144.22648721 253.67429522 134 261 C121.61137641 268.21235841 109.9795998 272.07890382 95.5546875 269.34765625 C83.37446357 265.99305557 73.26931436 258.73514315 66.6875 247.82421875 C65.70603287 245.90819285 64.82863316 243.98608901 64 242 C63.608125 241.154375 63.21625 240.30875 62.8125 239.4375 C59.69467532 230.08402595 61 219.50901228 61 210 C40.87 210 20.74 210 0 210 C0 140.7 0 71.4 0 0 Z " fill="#FDD743" transform="translate(0,91)"/>
<path d="M0 0 C9.71677436 7.12670702 16.47146928 16.55384587 19.421875 28.35546875 C19.421875 36.60546875 19.421875 44.85546875 19.421875 53.35546875 C39.221875 53.35546875 59.021875 53.35546875 79.421875 53.35546875 C79.421875 122.98546875 79.421875 192.61546875 79.421875 264.35546875 C10.121875 264.35546875 -59.178125 264.35546875 -130.578125 264.35546875 C-130.578125 244.22546875 -130.578125 224.09546875 -130.578125 203.35546875 C-120.678125 202.86046875 -120.678125 202.86046875 -110.578125 202.35546875 C-99.24569619 200.30483877 -87.52753383 196.10061676 -80.578125 186.35546875 C-79.0163875 183.73928667 -77.59023373 181.06780315 -76.203125 178.35546875 C-75.85677002 177.67887207 -75.51041504 177.00227539 -75.15356445 176.30517578 C-69.82633534 165.29815087 -70.37205345 152.85161195 -74.25390625 141.46484375 C-79.04361717 130.21820689 -87.40901609 122.09387859 -98.578125 117.35546875 C-110.35552468 113.37978361 -110.35552468 113.37978361 -130.578125 113.35546875 C-130.578125 93.55546875 -130.578125 73.75546875 -130.578125 53.35546875 C-110.778125 53.35546875 -90.978125 53.35546875 -70.578125 53.35546875 C-70.578125 45.10546875 -70.578125 36.85546875 -70.578125 28.35546875 C-67.43547925 16.92766601 -61.56827752 7.10254937 -51.578125 0.35546875 C-35.19006197 -8.83047184 -16.43765111 -10.48522897 0 0 Z " fill="#EF3800" transform="translate(341.578125,247.64453125)"/>
</svg>
